<?xml version="1.0" standalone="no"?>
<!DOCTYPE svg PUBLIC "-//W3C//DTD SVG 20010904//EN"
 "http://www.w3.org/TR/2001/REC-SVG-20010904/DTD/svg10.dtd">
<svg version="1.0" xmlns="http://www.w3.org/2000/svg"
 width="128.000000pt" height="128.000000pt" viewBox="0 0 128.000000 128.000000"
 preserveAspectRatio="xMidYMid meet">
<metadata>
Created by potrace 1.12, written by Peter Selinger 2001-2015
</metadata>
<g transform="translate(0.000000,128.000000) scale(0.100000,-0.100000)"
fill="#000000" stroke="none">
<path d="M502 1265 c-303 -69 -516 -351 -499 -661 9 -161 71 -297 187 -414 76
-75 148 -121 252 -158 64 -23 88 -26 198 -26 110 0 134 3 198 26 104 37 176
83 252 158 75 76 121 148 158 252 23 64 26 88 26 198 0 110 -3 134 -26 198
-37 104 -83 176 -158 252 -121 121 -257 180 -425 186 -64 2 -123 -1 -163 -11z
m263 -130 c382 -100 513 -576 235 -855 -279 -278 -755 -147 -855 235 -69 265
98 547 366 619 72 19 181 20 254 1z"/>
<path d="M510 640 c0 -154 3 -280 6 -280 9 0 374 273 374 280 0 7 -365 280
-374 280 -3 0 -6 -126 -6 -280z"/>
</g>
</svg>
