<?xml version="1.0" standalone="no"?>
<!DOCTYPE svg PUBLIC "-//W3C//DTD SVG 20010904//EN"
 "http://www.w3.org/TR/2001/REC-SVG-20010904/DTD/svg10.dtd">
<svg version="1.0" xmlns="http://www.w3.org/2000/svg"
 width="93.000000pt" height="128.000000pt" viewBox="0 0 93.000000 128.000000"
 preserveAspectRatio="xMidYMid meet">
<metadata>
Created by potrace 1.12, written by Peter Selinger 2001-2015
</metadata>
<g transform="translate(0.000000,128.000000) scale(0.100000,-0.100000)"
fill="#000000" stroke="none">
<path d="M347 1162 c-59 -59 -107 -112 -107 -117 0 -12 211 -225 223 -225 4 0
7 39 7 86 l0 87 42 -7 c120 -19 236 -112 277 -221 25 -67 27 -160 5 -234 l-16
-53 34 -37 c18 -20 36 -40 40 -45 9 -12 44 60 62 131 55 212 -50 435 -250 530
-48 23 -94 37 -134 40 l-60 6 0 83 c0 46 -3 84 -8 84 -4 0 -56 -48 -115 -108z"/>
<path d="M40 828 c-99 -231 1 -498 226 -605 48 -23 94 -37 134 -40 l60 -6 0
-83 c0 -46 3 -84 8 -84 11 0 222 214 222 225 0 12 -211 225 -223 225 -4 0 -7
-39 -7 -86 l0 -86 -42 7 c-122 20 -236 111 -277 220 -25 67 -27 160 -5 234
l16 54 -38 38 c-21 22 -41 39 -45 39 -4 0 -17 -24 -29 -52z"/>
</g>
</svg>
